<?xml version="1.0" encoding="iso-8859-1"?>
<!-- Generator: Adobe Illustrator 16.0.0, SVG Export Plug-In . SVG Version: 6.00 Build 0)  -->
<!DOCTYPE svg PUBLIC "-//W3C//DTD SVG 1.1//EN" "http://www.w3.org/Graphics/SVG/1.1/DTD/svg11.dtd">
<svg xmlns="http://www.w3.org/2000/svg" xmlns:xlink="http://www.w3.org/1999/xlink" version="1.1" id="Capa_1" x="0px" y="0px" width="512px" height="512px" viewBox="0 0 586.982 586.982" style="enable-background:new 0 0 586.982 586.982;" xml:space="preserve">
<g>
	<g>
		<g>
			<path d="M543.547,209.393c-13.674-32.33-33.233-61.348-58.136-86.25c-24.901-24.901-53.921-44.461-86.251-58.136     c-20.103-8.503-41.03-14.508-62.472-17.94c-0.829-4.123-2.106-8.138-3.825-12.018c-3.146-7.097-7.619-13.396-13.3-18.725     C308.688,6.12,294.495,0.5,279.6,0.5c-14.448,0-28.33,5.403-39.086,15.215l-70.708,64.498     c-10.769,9.823-16.945,23.816-16.945,38.392c0,14.575,6.176,28.569,16.944,38.392l70.708,64.498     c10.756,9.812,24.638,15.216,39.086,15.216c14.896,0,29.089-5.62,39.966-15.824c5.68-5.33,10.154-11.629,13.299-18.727     c0.275-0.62,0.538-1.243,0.79-1.869c17.052,5.93,32.568,15.678,45.75,28.859c22.948,22.949,35.586,53.46,35.586,85.914     c0,32.453-12.638,62.965-35.586,85.913c-22.949,22.948-53.46,35.587-85.914,35.587c-32.454,0-62.965-12.639-85.913-35.587     c-22.949-22.948-35.586-53.46-35.586-85.913c0-11.872,1.685-23.551,5.008-34.714c4.165-13.99,2.937-28.923-3.457-42.045     c-6.392-13.118-17.39-23.285-30.967-28.631l-31.399-12.36c-6.815-2.684-13.979-4.044-21.287-4.045     c-12.29-0.001-24.062,3.805-34.042,11.008c-10.265,7.407-17.69,17.717-21.471,29.815c-8.163,26.11-12.301,53.354-12.301,80.974     c0,36.608,7.187,72.161,21.36,105.671c13.675,32.329,33.234,61.349,58.136,86.25c24.902,24.902,53.92,44.462,86.25,58.136     c33.509,14.174,69.062,21.36,105.67,21.36s72.161-7.187,105.672-21.36c32.329-13.674,61.348-33.233,86.25-58.137     c24.901-24.901,44.461-53.92,58.136-86.25c14.174-33.509,21.36-69.062,21.36-105.671     C564.909,278.456,557.722,242.902,543.547,209.393z M504.092,404.047c-11.515,27.222-27.991,51.664-48.973,72.646     c-20.982,20.982-45.424,37.459-72.646,48.974c-28.2,11.928-58.139,17.976-88.982,17.976s-60.782-6.048-88.982-17.976     c-27.222-11.515-51.665-27.991-72.646-48.974c-20.982-20.981-37.459-45.423-48.973-72.646     c-11.928-28.201-17.976-58.14-17.976-88.982c0-23.335,3.476-46.204,10.35-68.192c2.062-6.598,8.133-10.765,14.621-10.765     c1.86,0,3.755,0.343,5.599,1.069l31.398,12.36c7.387,2.908,11.323,10.983,9.058,18.592c-4.509,15.149-6.788,30.881-6.788,46.937     c0,43.897,17.094,85.166,48.134,116.206c31.04,31.039,72.309,48.134,116.206,48.134c43.896,0,85.167-17.095,116.206-48.135     c31.04-31.04,48.135-72.309,48.135-116.206c0-43.897-17.095-85.167-48.135-116.206c-26.627-26.627-60.784-42.983-97.669-47.096     c-0.582-0.065-1.158-0.097-1.729-0.097c-8.336,0-15.304,6.751-15.304,15.303v11.572c0,9.17-7.511,15.33-15.395,15.33     c-3.546,0-7.168-1.247-10.216-4.026l-70.708-64.497c-3.967-3.619-3.967-9.864,0-13.483l70.708-64.497     c3.048-2.78,6.669-4.026,10.216-4.026c7.883,0,15.395,6.16,15.395,15.33v13.093c0,8.042,6.225,14.716,14.249,15.259     c25.288,1.711,49.855,7.554,73.23,17.441c27.222,11.514,51.664,27.991,72.646,48.973c20.982,20.982,37.459,45.423,48.973,72.646     c11.929,28.201,17.977,58.139,17.977,88.982C522.069,345.907,516.02,375.846,504.092,404.047z" fill="#FFFFFF"/>
			<path d="M293.491,586.982c-36.676,0-72.295-7.2-105.865-21.4c-32.389-13.698-61.461-33.294-86.409-58.242     c-24.946-24.945-44.542-54.018-58.243-86.409c-14.2-33.571-21.399-69.189-21.399-105.865c0-27.671,4.146-54.964,12.324-81.123     c3.813-12.202,11.302-22.601,21.656-30.071c10.065-7.263,21.935-11.103,34.328-11.103c7.379,0,14.603,1.373,21.477,4.08     l31.399,12.36c13.694,5.392,24.787,15.647,31.233,28.877c6.449,13.236,7.688,28.296,3.487,42.407     c-3.31,11.116-4.987,22.748-4.987,34.572c0,32.32,12.586,62.706,35.44,85.56c22.854,22.854,53.24,35.44,85.56,35.44     c32.319,0,62.705-12.586,85.561-35.44c22.854-22.854,35.439-53.239,35.439-85.56s-12.586-62.707-35.439-85.561     c-13.007-13.006-28.183-22.621-45.112-28.584c-0.199,0.483-0.404,0.964-0.617,1.443c-3.171,7.156-7.684,13.512-13.414,18.888     c-10.97,10.292-25.285,15.959-40.308,15.959c-14.574,0-28.575-5.45-39.423-15.347l-70.708-64.497     c-10.872-9.918-17.107-24.045-17.107-38.761s6.236-28.844,17.108-38.761l70.708-64.498C251.025,5.45,265.026,0,279.6,0     c15.023,0,29.337,5.667,40.306,15.959c5.729,5.374,10.242,11.728,13.415,18.887c1.679,3.79,2.953,7.752,3.789,11.782     c21.335,3.443,42.275,9.472,62.245,17.918c32.391,13.7,61.463,33.295,86.41,58.243c24.948,24.948,44.544,54.021,58.243,86.409     c14.2,33.57,21.4,69.189,21.4,105.866c0,36.677-7.2,72.295-21.399,105.865c-13.7,32.391-33.296,61.462-58.243,86.409     c-24.947,24.948-54.02,44.544-86.409,58.244C365.785,579.782,330.167,586.982,293.491,586.982z M89.889,193.769     c-12.188,0-23.856,3.774-33.75,10.913c-10.177,7.344-17.538,17.565-21.287,29.559c-8.147,26.062-12.278,53.255-12.278,80.824     c0,36.541,7.173,72.028,21.32,105.477c13.651,32.271,33.175,61.237,58.029,86.091c24.856,24.856,53.822,44.38,86.092,58.028     c33.447,14.147,68.934,21.321,105.476,21.321c36.541,0,72.028-7.174,105.478-21.321c32.27-13.648,61.235-33.173,86.091-58.029     c24.855-24.855,44.379-53.82,58.028-86.091c14.147-33.447,21.321-68.935,21.321-105.477c0-36.543-7.174-72.03-21.322-105.477     c-13.648-32.27-33.172-61.235-58.028-86.092c-24.855-24.856-53.821-44.379-86.092-58.029     c-20.003-8.46-40.982-14.485-62.356-17.907l-0.343-0.055l-0.068-0.34c-0.819-4.076-2.096-8.084-3.792-11.914     c-3.119-7.037-7.555-13.282-13.185-18.563C308.439,6.572,294.368,1,279.6,1c-14.324,0-28.085,5.357-38.749,15.085l-70.708,64.498     c-10.666,9.729-16.782,23.587-16.782,38.022c0,14.435,6.117,28.293,16.781,38.022l70.708,64.497     c10.664,9.729,24.425,15.086,38.75,15.086c14.768,0,28.84-5.572,39.625-15.688c5.631-5.284,10.067-11.53,13.184-18.564     c0.273-0.615,0.533-1.233,0.783-1.853l0.178-0.442l0.45,0.157c17.255,6,32.711,15.75,45.939,28.978     c23.042,23.043,35.732,53.68,35.732,86.268c0,32.588-12.69,63.225-35.732,86.267c-23.044,23.043-53.681,35.733-86.268,35.733     s-63.224-12.69-86.267-35.733c-23.042-23.042-35.733-53.679-35.733-86.267c0-11.921,1.692-23.648,5.029-34.857     c4.129-13.871,2.912-28.674-3.428-41.684c-6.336-13.004-17.24-23.084-30.701-28.384l-31.399-12.36     C104.235,195.119,97.135,193.77,89.889,193.769z M293.491,544.142c-30.912,0-60.915-6.062-89.177-18.015     c-27.284-11.541-51.779-28.055-72.805-49.081c-21.028-21.027-37.541-45.522-49.08-72.805     c-11.955-28.264-18.016-58.268-18.016-89.177c0-23.332,3.49-46.325,10.373-68.341c2.078-6.649,8.146-11.116,15.098-11.116     c1.978,0,3.923,0.371,5.782,1.104l31.398,12.36c7.69,3.027,11.711,11.281,9.354,19.2c-4.49,15.087-6.767,30.831-6.767,46.794     c0,43.764,17.042,84.907,47.988,115.853c30.946,30.945,72.089,47.987,115.853,47.987c43.764,0,84.908-17.043,115.853-47.988     c30.945-30.945,47.988-72.09,47.988-115.853c0-43.763-17.043-84.907-47.988-115.853c-26.576-26.577-60.247-42.813-97.371-46.952     c-0.556-0.062-1.119-0.094-1.674-0.094c-8.163,0-14.804,6.641-14.804,14.803v11.572c0,9.777-8.25,15.83-15.895,15.83     c-3.922,0-7.572-1.438-10.553-4.157l-70.708-64.497c-1.995-1.819-3.138-4.411-3.139-7.11c0-2.7,1.144-5.292,3.139-7.111     l70.708-64.497c2.981-2.72,6.63-4.157,10.553-4.157c7.645,0,15.895,6.052,15.895,15.83v13.093c0,7.753,6.054,14.237,13.783,14.76     c25.329,1.714,50.021,7.595,73.391,17.48c27.284,11.54,51.778,28.053,72.805,49.08c21.028,21.027,37.541,45.523,49.08,72.805     c11.954,28.262,18.016,58.266,18.016,89.177c0,30.909-6.062,60.913-18.016,89.177c-11.541,27.283-28.054,51.778-49.08,72.805     c-21.027,21.027-45.522,37.541-72.806,49.08C354.406,538.08,324.402,544.142,293.491,544.142z M89.884,236.607     c-6.513,0-12.197,4.185-14.144,10.414c-6.853,21.92-10.327,44.813-10.327,68.043c0,30.775,6.035,60.647,17.937,88.788     c11.489,27.162,27.93,51.55,48.866,72.486c20.934,20.936,45.322,37.376,72.487,48.866c28.138,11.902,58.011,17.937,88.788,17.937     c30.777,0,60.649-6.034,88.788-17.937c27.163-11.489,51.551-27.931,72.487-48.866c20.935-20.935,37.375-45.323,48.865-72.486     c11.902-28.141,17.938-58.014,17.938-88.788c0-30.777-6.035-60.65-17.938-88.788c-11.488-27.163-27.929-51.552-48.865-72.488     c-20.935-20.935-45.322-37.376-72.486-48.866c-23.268-9.841-47.852-15.697-73.07-17.403c-8.251-0.559-14.715-7.48-14.715-15.758     V58.67c0-9.16-7.731-14.83-14.895-14.83c-3.669,0-7.085,1.347-9.879,3.896l-70.708,64.498c-1.788,1.63-2.812,3.953-2.812,6.373     c0,2.419,1.025,4.742,2.812,6.372l70.708,64.497c2.794,2.548,6.21,3.896,9.879,3.896c9.324,0,14.895-7.54,14.895-14.83v-11.572     c0-8.714,7.09-15.803,15.804-15.803c0.592,0,1.192,0.034,1.785,0.1c37.352,4.165,71.229,20.5,97.967,47.239     c31.135,31.134,48.281,72.529,48.281,116.56s-17.146,85.425-48.281,116.56c-31.134,31.135-72.528,48.281-116.56,48.281     c-44.03,0-85.425-17.146-116.56-48.28s-48.281-72.529-48.281-116.56c0-16.06,2.291-31.899,6.809-47.079     c2.208-7.417-1.559-15.148-8.761-17.984L95.3,237.642C93.558,236.956,91.736,236.607,89.884,236.607z" fill="#FFFFFF"/>
		</g>
	</g>
</g>
<g>
</g>
<g>
</g>
<g>
</g>
<g>
</g>
<g>
</g>
<g>
</g>
<g>
</g>
<g>
</g>
<g>
</g>
<g>
</g>
<g>
</g>
<g>
</g>
<g>
</g>
<g>
</g>
<g>
</g>
</svg>
